{"glyphs":{"0":{"ha":1017,"x_min":0,"x_max":949,"o":"m 678 610 l 610 678 l 339 678 l 271 610 l 271 339 l 339 271 l 610 271 l 678 339 l 678 610 m 814 949 l 949 814 l 949 136 l 814 0 l 136 0 l 0 136 l 0 814 l 136 949 l 814 949 z "},"1":{"ha":543,"x_min":0,"x_max":475,"o":"m 136 678 l 0 678 l 0 949 l 339 949 l 475 814 l 475 0 l 203 0 l 203 610 l 136 678 z "},"2":{"ha":1017,"x_min":0,"x_max":949,"o":"m 949 271 l 949 0 l 0 0 l 0 475 l 136 610 l 610 610 l 644 644 l 610 678 l 0 678 l 0 949 l 814 949 l 949 814 l 949 475 l 814 339 l 339 339 l 271 271 l 949 271 z "},"3":{"ha":1017,"x_min":0,"x_max":949,"o":"m 610 678 l 0 678 l 0 949 l 814 949 l 949 814 l 949 610 l 814 475 l 949 339 l 949 136 l 814 0 l 0 0 l 0 271 l 610 271 l 644 305 l 610 339 l 0 339 l 0 610 l 610 610 l 644 644 l 610 678 z "},"4":{"ha":1017,"x_min":0,"x_max":949,"o":"m 882 407 l 949 407 l 949 136 l 882 136 l 882 0 l 610 0 l 610 136 l 136 136 l 0 271 l 0 949 l 271 949 l 271 475 l 339 407 l 610 407 l 610 949 l 882 949 l 882 407 z "},"5":{"ha":1017,"x_min":0,"x_max":949,"o":"m 949 949 l 949 678 l 271 678 l 339 610 l 814 610 l 949 475 l 949 136 l 814 0 l 0 0 l 0 271 l 610 271 l 644 305 l 610 339 l 136 339 l 0 475 l 0 949 l 949 949 z "},"6":{"ha":1017,"x_min":0,"x_max":949,"o":"m 949 949 l 949 678 l 339 678 l 271 610 l 814 610 l 949 475 l 949 136 l 814 0 l 136 0 l 0 136 l 0 814 l 136 949 l 949 949 m 339 271 l 610 271 l 644 305 l 610 339 l 339 339 l 305 305 l 339 271 z "},"7":{"ha":1017,"x_min":0,"x_max":949,"o":"m 441 678 l 0 678 l 0 949 l 949 949 l 949 712 l 237 0 l 0 0 l 0 237 l 441 678 z "},"8":{"ha":1017,"x_min":0,"x_max":949,"o":"m 610 271 l 678 339 l 271 339 l 339 271 l 610 271 m 339 678 l 271 610 l 678 610 l 610 678 l 339 678 m 814 949 l 949 814 l 949 136 l 814 0 l 136 0 l 0 136 l 0 814 l 136 949 l 814 949 z "},"9":{"ha":1017,"x_min":0,"x_max":949,"o":"m 0 0 l 0 271 l 610 271 l 678 339 l 136 339 l 0 475 l 0 814 l 136 949 l 814 949 l 949 814 l 949 136 l 814 0 l 0 0 m 610 678 l 339 678 l 305 644 l 339 610 l 610 610 l 644 644 l 610 678 z "},"\u0000":{"ha":0,"x_min":0,"x_max":0,"o":""}," ":{"ha":271,"x_min":0,"x_max":0,"o":""},"!":{"ha":339,"x_min":0,"x_max":271,"o":"m 271 0 l 0 0 l 0 271 l 271 271 l 271 0 m 271 339 l 0 339 l 0 949 l 271 949 l 271 339 z "},"\"":{"ha":678,"x_min":0,"x_max":610,"o":"m 271 543 l 0 543 l 0 949 l 271 949 l 271 543 m 610 543 l 339 543 l 339 949 l 610 949 l 610 543 z "},"#":{"ha":1017,"x_min":0,"x_max":949,"o":"m 407 814 l 543 814 l 543 949 l 814 949 l 814 814 l 949 814 l 949 543 l 814 543 l 814 407 l 949 407 l 949 136 l 814 136 l 814 0 l 543 0 l 543 136 l 407 136 l 407 0 l 136 0 l 136 136 l 0 136 l 0 407 l 136 407 l 136 543 l 0 543 l 0 814 l 136 814 l 136 949 l 407 949 l 407 814 m 543 543 l 407 543 l 407 407 l 543 407 l 543 543 z "},"$":{"ha":1017,"x_min":-136,"x_max":1085,"o":"m 610 949 l 1085 949 l 814 678 l 339 678 l 305 644 l 339 610 l 814 610 l 949 475 l 949 136 l 814 0 l 610 0 l 610 -136 l 339 -136 l 339 0 l 136 0 l -136 271 l 610 271 l 644 305 l 610 339 l 136 339 l 0 475 l 0 814 l 136 949 l 339 949 l 339 1085 l 610 1085 l 610 949 z "},"%":{"ha":1017,"x_min":0,"x_max":949,"o":"m 192 0 l 0 0 l 0 192 l 758 949 l 949 949 l 949 758 l 192 0 m 949 0 l 678 0 l 678 271 l 949 271 l 949 0 m 271 678 l 0 678 l 0 949 l 271 949 l 271 678 z "},"&":{"ha":1017,"x_min":0,"x_max":949,"o":"m 882 271 l 949 271 l 949 0 l 136 0 l 0 136 l 0 339 l 136 475 l 0 610 l 0 814 l 136 949 l 543 949 l 543 678 l 339 678 l 305 644 l 339 610 l 610 610 l 610 678 l 882 678 l 882 610 l 949 610 l 949 339 l 882 339 l 882 271 m 610 339 l 339 339 l 305 305 l 339 271 l 610 271 l 610 339 z "},"'":{"ha":339,"x_min":0,"x_max":271,"o":"m 271 543 l 0 543 l 0 949 l 271 949 l 271 543 z "},"(":{"ha":543,"x_min":0,"x_max":475,"o":"m 475 1017 l 475 746 l 339 746 l 271 678 l 271 271 l 339 203 l 475 203 l 475 -68 l 136 -68 l 0 68 l 0 882 l 136 1017 l 475 1017 z "},")":{"ha":543,"x_min":0,"x_max":475,"o":"m 0 -68 l 0 203 l 136 203 l 203 271 l 203 678 l 136 746 l 0 746 l 0 1017 l 339 1017 l 475 882 l 475 68 l 339 -68 l 0 -68 z "},"*":{"ha":746,"x_min":-22,"x_max":701,"o":"m 203 845 l 203 949 l 475 949 l 475 845 l 565 897 l 701 663 l 610 610 l 701 558 l 565 323 l 475 376 l 475 271 l 203 271 l 203 376 l 113 323 l -22 558 l 68 610 l -22 663 l 113 897 l 203 845 z "},"+":{"ha":746,"x_min":0,"x_max":678,"o":"m 203 339 l 0 339 l 0 610 l 203 610 l 203 814 l 475 814 l 475 610 l 678 610 l 678 339 l 475 339 l 475 136 l 203 136 l 203 339 z "},",":{"ha":339,"x_min":0,"x_max":271,"o":"m 271 0 l 0 -271 l 0 271 l 271 271 l 271 0 z "},"-":{"ha":746,"x_min":0,"x_max":678,"o":"m 0 339 l 0 610 l 678 610 l 678 339 l 0 339 z "},".":{"ha":339,"x_min":0,"x_max":271,"o":"m 271 0 l 0 0 l 0 271 l 271 271 l 271 0 z "},"/":{"ha":1017,"x_min":0,"x_max":949,"o":"m 192 0 l 0 0 l 0 192 l 758 949 l 949 949 l 949 758 l 192 0 z "},":":{"ha":339,"x_min":0,"x_max":271,"o":"m 271 0 l 0 0 l 0 271 l 271 271 l 271 0 m 271 423 l 0 423 l 0 694 l 271 694 l 271 423 z "},";":{"ha":339,"x_min":0,"x_max":271,"o":"m 271 0 l 0 -271 l 0 271 l 271 271 l 271 0 m 271 423 l 0 423 l 0 694 l 271 694 l 271 423 z "},"<":{"ha":678,"x_min":0,"x_max":610,"o":"m 407 475 l 610 271 l 610 0 l 407 0 l 0 407 l 0 543 l 407 949 l 610 949 l 610 678 l 407 475 z "},"=":{"ha":746,"x_min":0,"x_max":678,"o":"m 0 509 l 0 780 l 678 780 l 678 509 l 0 509 m 0 170 l 0 441 l 678 441 l 678 170 l 0 170 z "},">":{"ha":678,"x_min":0,"x_max":610,"o":"m 203 475 l 0 678 l 0 949 l 203 949 l 610 543 l 610 407 l 203 0 l 0 0 l 0 271 l 203 475 z "},"?":{"ha":1017,"x_min":0,"x_max":949,"o":"m 610 678 l 0 678 l 0 949 l 814 949 l 949 814 l 949 475 l 814 339 l 203 339 l 203 610 l 610 610 l 644 644 l 610 678 m 475 0 l 203 0 l 203 271 l 475 271 l 475 0 z "},"@":{"ha":1017,"x_min":0,"x_max":949,"o":"m 339 271 l 882 271 l 882 0 l 136 0 l 0 136 l 0 814 l 136 949 l 814 949 l 949 814 l 949 339 l 339 339 l 339 610 l 678 610 l 610 678 l 339 678 l 271 610 l 271 339 l 339 271 z "},"A":{"ha":1017,"x_min":0,"x_max":949,"o":"m 339 678 l 271 610 l 271 475 l 678 475 l 678 610 l 610 678 l 339 678 m 0 814 l 136 949 l 814 949 l 949 814 l 949 0 l 678 0 l 678 203 l 271 203 l 271 -136 l 0 136 l 0 814 z "},"B":{"ha":1017,"x_min":0,"x_max":949,"o":"m 271 678 l 271 610 l 610 610 l 644 644 l 610 678 l 271 678 m 271 339 l 271 271 l 610 271 l 644 305 l 610 339 l 271 339 m 0 0 l 0 949 l 814 949 l 949 814 l 949 610 l 814 475 l 949 339 l 949 136 l 814 0 l 0 0 z "},"C":{"ha":1017,"x_min":0,"x_max":949,"o":"m 949 610 l 678 543 l 678 610 l 610 678 l 339 678 l 271 610 l 271 339 l 339 271 l 610 271 l 678 339 l 678 407 l 949 339 l 949 136 l 814 0 l 136 0 l 0 136 l 0 814 l 136 949 l 814 949 l 949 814 l 949 610 z "},"D":{"ha":1017,"x_min":0,"x_max":949,"o":"m 271 678 l 271 271 l 610 271 l 678 339 l 678 610 l 610 678 l 271 678 m 0 0 l 0 949 l 814 949 l 949 814 l 949 136 l 814 0 l 0 0 z "},"E":{"ha":1017,"x_min":0,"x_max":1085,"o":"m 271 610 l 882 610 l 746 339 l 271 339 l 271 271 l 814 271 l 1085 0 l 0 0 l 0 949 l 1085 949 l 814 678 l 271 678 l 271 610 z "},"F":{"ha":1017,"x_min":0,"x_max":949,"o":"m 271 610 l 882 610 l 882 339 l 271 339 l 271 0 l 0 0 l 0 949 l 949 949 l 949 678 l 271 678 l 271 610 z "},"G":{"ha":1017,"x_min":0,"x_max":1085,"o":"m 1085 949 l 814 678 l 339 678 l 271 610 l 271 339 l 339 271 l 610 271 l 678 339 l 407 339 l 407 610 l 949 610 l 949 136 l 814 0 l 136 0 l 0 136 l 0 814 l 136 949 l 1085 949 z "},"H":{"ha":1017,"x_min":0,"x_max":949,"o":"m 678 610 l 678 949 l 949 949 l 949 0 l 678 0 l 678 339 l 271 339 l 271 0 l 0 0 l 0 949 l 271 949 l 271 610 l 678 610 z "},"I":{"ha":339,"x_min":0,"x_max":271,"o":"m 271 0 l 0 0 l 0 949 l 271 949 l 271 0 z "},"J":{"ha":1017,"x_min":0,"x_max":949,"o":"m 136 0 l 0 136 l 0 339 l 271 339 l 339 271 l 610 271 l 678 339 l 678 949 l 949 949 l 949 136 l 814 0 l 136 0 z "},"K":{"ha":1017,"x_min":0,"x_max":1053,"o":"m 271 551 l 669 949 l 1053 949 l 578 475 l 1053 0 l 669 0 l 271 398 l 271 -136 l 0 136 l 0 949 l 271 949 l 271 551 z "},"L":{"ha":1017,"x_min":0,"x_max":949,"o":"m 0 949 l 271 949 l 271 271 l 949 271 l 949 0 l 0 0 l 0 949 z "},"M":{"ha":1017,"x_min":0,"x_max":949,"o":"m 271 610 l 271 -136 l 0 136 l 0 949 l 339 949 l 475 814 l 610 949 l 949 949 l 949 0 l 678 0 l 678 610 l 644 644 l 610 610 l 610 0 l 339 0 l 339 610 l 305 644 l 271 610 z "},"N":{"ha":1017,"x_min":0,"x_max":949,"o":"m 678 475 l 678 949 l 949 949 l 949 0 l 746 0 l 271 475 l 271 0 l 0 0 l 0 949 l 203 949 l 678 475 z "},"O":{"ha":1017,"x_min":0,"x_max":949,"o":"m 678 610 l 610 678 l 339 678 l 271 610 l 271 339 l 339 271 l 610 271 l 678 339 l 678 610 m 814 949 l 949 814 l 949 136 l 814 0 l 136 0 l 0 136 l 0 814 l 136 949 l 814 949 z "},"P":{"ha":1017,"x_min":0,"x_max":949,"o":"m 271 678 l 271 543 l 610 543 l 678 610 l 610 678 l 271 678 m 271 271 l 271 -136 l 0 136 l 0 949 l 814 949 l 949 814 l 949 407 l 814 271 l 271 271 z "},"Q":{"ha":1017,"x_min":0,"x_max":1189,"o":"m 814 949 l 949 814 l 949 271 l 866 188 l 1189 -136 l 805 -136 l 669 0 l 136 0 l 0 136 l 0 814 l 136 949 l 814 949 m 678 610 l 610 678 l 339 678 l 271 610 l 271 339 l 339 271 l 543 271 l 678 407 l 678 610 z "},"R":{"ha":1017,"x_min":0,"x_max":1053,"o":"m 271 678 l 271 543 l 610 543 l 678 610 l 610 678 l 271 678 m 271 271 l 271 0 l 0 0 l 0 949 l 814 949 l 949 814 l 949 407 l 814 271 l 782 271 l 1053 0 l 669 0 l 398 271 l 271 271 z "},"S":{"ha":1017,"x_min":-136,"x_max":1085,"o":"m 1085 949 l 814 678 l 339 678 l 305 644 l 339 610 l 814 610 l 949 475 l 949 136 l 814 0 l 136 0 l -136 271 l 610 271 l 644 305 l 610 339 l 136 339 l 0 475 l 0 814 l 136 949 l 1085 949 z "},"T":{"ha":1017,"x_min":0,"x_max":949,"o":"m 339 678 l 0 678 l 0 949 l 949 949 l 949 678 l 610 678 l 610 -136 l 339 136 l 339 678 z "},"U":{"ha":1017,"x_min":0,"x_max":949,"o":"m 678 339 l 678 949 l 949 949 l 949 136 l 814 0 l 136 0 l 0 136 l 0 949 l 271 949 l 271 339 l 339 271 l 610 271 l 678 339 z "},"V":{"ha":1017,"x_min":0,"x_max":949,"o":"m 678 475 l 678 949 l 949 949 l 949 271 l 678 0 l 271 0 l 0 271 l 0 949 l 271 949 l 271 475 l 475 271 l 678 475 z "},"W":{"ha":1017,"x_min":0,"x_max":949,"o":"m 678 339 l 678 949 l 949 949 l 949 136 l 814 0 l 610 0 l 475 136 l 339 0 l 136 0 l 0 136 l 0 949 l 271 949 l 271 339 l 305 305 l 339 339 l 339 949 l 610 949 l 610 339 l 644 305 l 678 339 z "},"X":{"ha":1017,"x_min":0,"x_max":949,"o":"m 339 339 l 271 271 l 271 0 l 0 0 l 0 339 l 136 475 l 0 610 l 0 949 l 271 949 l 271 678 l 339 610 l 610 610 l 678 678 l 678 949 l 949 949 l 949 610 l 814 475 l 949 339 l 949 0 l 678 0 l 678 271 l 610 339 l 339 339 z "},"Y":{"ha":1017,"x_min":0,"x_max":949,"o":"m 678 610 l 678 949 l 949 949 l 949 407 l 814 271 l 610 271 l 610 -136 l 339 136 l 339 271 l 136 271 l 0 407 l 0 949 l 271 949 l 271 610 l 339 543 l 610 543 l 678 610 z "},"Z":{"ha":1017,"x_min":0,"x_max":949,"o":"m 463 271 l 949 271 l 949 0 l 0 0 l 0 192 l 486 678 l 0 678 l 0 949 l 949 949 l 949 758 l 463 271 z "},"[":{"ha":543,"x_min":0,"x_max":475,"o":"m 475 1017 l 475 746 l 271 746 l 271 203 l 475 203 l 475 -68 l 0 -68 l 0 1017 l 475 1017 z "},"\\":{"ha":1017,"x_min":0,"x_max":949,"o":"m 192 949 l 949 192 l 949 0 l 758 0 l 0 758 l 0 949 l 192 949 z "},"]":{"ha":543,"x_min":0,"x_max":475,"o":"m 0 -68 l 0 203 l 203 203 l 203 746 l 0 746 l 0 1017 l 475 1017 l 475 -68 l 0 -68 z "},"^":{"ha":610,"x_min":0,"x_max":543,"o":"m 271 746 l 203 678 l 0 678 l 0 814 l 136 949 l 407 949 l 543 814 l 543 678 l 339 678 l 271 746 z "},"_":{"ha":1017,"x_min":0,"x_max":949,"o":"m 0 0 l 0 271 l 949 271 l 949 0 l 0 0 z "},"`":{"ha":610,"x_min":0,"x_max":543,"o":"m 543 678 l 271 678 l 0 949 l 407 949 l 543 678 z "},"a":{"ha":1017,"x_min":0,"x_max":949,"o":"m 339 678 l 271 610 l 271 475 l 678 475 l 678 610 l 610 678 l 339 678 m 0 814 l 136 949 l 814 949 l 949 814 l 949 0 l 678 0 l 678 203 l 271 203 l 271 -136 l 0 136 l 0 814 z "},"b":{"ha":1017,"x_min":0,"x_max":949,"o":"m 271 678 l 271 610 l 610 610 l 644 644 l 610 678 l 271 678 m 271 339 l 271 271 l 610 271 l 644 305 l 610 339 l 271 339 m 0 0 l 0 949 l 814 949 l 949 814 l 949 610 l 814 475 l 949 339 l 949 136 l 814 0 l 0 0 z "},"c":{"ha":1017,"x_min":0,"x_max":949,"o":"m 949 610 l 678 543 l 678 610 l 610 678 l 339 678 l 271 610 l 271 339 l 339 271 l 610 271 l 678 339 l 678 407 l 949 339 l 949 136 l 814 0 l 136 0 l 0 136 l 0 814 l 136 949 l 814 949 l 949 814 l 949 610 z "},"d":{"ha":1017,"x_min":0,"x_max":949,"o":"m 271 678 l 271 271 l 610 271 l 678 339 l 678 610 l 610 678 l 271 678 m 0 0 l 0 949 l 814 949 l 949 814 l 949 136 l 814 0 l 0 0 z "},"e":{"ha":1017,"x_min":0,"x_max":1085,"o":"m 271 610 l 882 610 l 746 339 l 271 339 l 271 271 l 814 271 l 1085 0 l 0 0 l 0 949 l 1085 949 l 814 678 l 271 678 l 271 610 z "},"f":{"ha":1017,"x_min":0,"x_max":949,"o":"m 271 610 l 882 610 l 882 339 l 271 339 l 271 0 l 0 0 l 0 949 l 949 949 l 949 678 l 271 678 l 271 610 z "},"g":{"ha":1017,"x_min":0,"x_max":1085,"o":"m 1085 949 l 814 678 l 339 678 l 271 610 l 271 339 l 339 271 l 610 271 l 678 339 l 407 339 l 407 610 l 949 610 l 949 136 l 814 0 l 136 0 l 0 136 l 0 814 l 136 949 l 1085 949 z "},"h":{"ha":1017,"x_min":0,"x_max":949,"o":"m 678 610 l 678 949 l 949 949 l 949 0 l 678 0 l 678 339 l 271 339 l 271 0 l 0 0 l 0 949 l 271 949 l 271 610 l 678 610 z "},"i":{"ha":339,"x_min":0,"x_max":271,"o":"m 271 0 l 0 0 l 0 949 l 271 949 l 271 0 z "},"j":{"ha":1017,"x_min":0,"x_max":949,"o":"m 136 0 l 0 136 l 0 339 l 271 339 l 339 271 l 610 271 l 678 339 l 678 949 l 949 949 l 949 136 l 814 0 l 136 0 z "},"k":{"ha":1017,"x_min":0,"x_max":1053,"o":"m 271 551 l 669 949 l 1053 949 l 578 475 l 1053 0 l 669 0 l 271 398 l 271 -136 l 0 136 l 0 949 l 271 949 l 271 551 z "},"l":{"ha":1017,"x_min":0,"x_max":949,"o":"m 0 949 l 271 949 l 271 271 l 949 271 l 949 0 l 0 0 l 0 949 z "},"m":{"ha":1017,"x_min":0,"x_max":949,"o":"m 271 610 l 271 -136 l 0 136 l 0 949 l 339 949 l 475 814 l 610 949 l 949 949 l 949 0 l 678 0 l 678 610 l 644 644 l 610 610 l 610 0 l 339 0 l 339 610 l 305 644 l 271 610 z "},"n":{"ha":1017,"x_min":0,"x_max":949,"o":"m 678 475 l 678 949 l 949 949 l 949 0 l 746 0 l 271 475 l 271 0 l 0 0 l 0 949 l 203 949 l 678 475 z "},"o":{"ha":1017,"x_min":0,"x_max":949,"o":"m 678 610 l 610 678 l 339 678 l 271 610 l 271 339 l 339 271 l 610 271 l 678 339 l 678 610 m 814 949 l 949 814 l 949 136 l 814 0 l 136 0 l 0 136 l 0 814 l 136 949 l 814 949 z "},"p":{"ha":1017,"x_min":0,"x_max":949,"o":"m 271 678 l 271 543 l 610 543 l 678 610 l 610 678 l 271 678 m 271 271 l 271 -136 l 0 136 l 0 949 l 814 949 l 949 814 l 949 407 l 814 271 l 271 271 z "},"q":{"ha":1017,"x_min":0,"x_max":1189,"o":"m 814 949 l 949 814 l 949 271 l 866 188 l 1189 -136 l 805 -136 l 669 0 l 136 0 l 0 136 l 0 814 l 136 949 l 814 949 m 678 610 l 610 678 l 339 678 l 271 610 l 271 339 l 339 271 l 543 271 l 678 407 l 678 610 z "},"r":{"ha":1017,"x_min":0,"x_max":1053,"o":"m 271 678 l 271 543 l 610 543 l 678 610 l 610 678 l 271 678 m 271 271 l 271 0 l 0 0 l 0 949 l 814 949 l 949 814 l 949 407 l 814 271 l 782 271 l 1053 0 l 669 0 l 398 271 l 271 271 z "},"s":{"ha":1017,"x_min":-136,"x_max":1085,"o":"m 1085 949 l 814 678 l 339 678 l 305 644 l 339 610 l 814 610 l 949 475 l 949 136 l 814 0 l 136 0 l -136 271 l 610 271 l 644 305 l 610 339 l 136 339 l 0 475 l 0 814 l 136 949 l 1085 949 z "},"t":{"ha":1017,"x_min":0,"x_max":949,"o":"m 339 678 l 0 678 l 0 949 l 949 949 l 949 678 l 610 678 l 610 -136 l 339 136 l 339 678 z "},"u":{"ha":1017,"x_min":0,"x_max":949,"o":"m 678 339 l 678 949 l 949 949 l 949 136 l 814 0 l 136 0 l 0 136 l 0 949 l 271 949 l 271 339 l 339 271 l 610 271 l 678 339 z "},"v":{"ha":1017,"x_min":0,"x_max":949,"o":"m 678 475 l 678 949 l 949 949 l 949 271 l 678 0 l 271 0 l 0 271 l 0 949 l 271 949 l 271 475 l 475 271 l 678 475 z "},"w":{"ha":1017,"x_min":0,"x_max":949,"o":"m 678 339 l 678 949 l 949 949 l 949 136 l 814 0 l 610 0 l 475 136 l 339 0 l 136 0 l 0 136 l 0 949 l 271 949 l 271 339 l 305 305 l 339 339 l 339 949 l 610 949 l 610 339 l 644 305 l 678 339 z "},"x":{"ha":1017,"x_min":0,"x_max":949,"o":"m 339 339 l 271 271 l 271 0 l 0 0 l 0 339 l 136 475 l 0 610 l 0 949 l 271 949 l 271 678 l 339 610 l 610 610 l 678 678 l 678 949 l 949 949 l 949 610 l 814 475 l 949 339 l 949 0 l 678 0 l 678 271 l 610 339 l 339 339 z "},"y":{"ha":1017,"x_min":0,"x_max":949,"o":"m 678 610 l 678 949 l 949 949 l 949 407 l 814 271 l 610 271 l 610 -136 l 339 136 l 339 271 l 136 271 l 0 407 l 0 949 l 271 949 l 271 610 l 339 543 l 610 543 l 678 610 z "},"z":{"ha":1017,"x_min":0,"x_max":949,"o":"m 463 271 l 949 271 l 949 0 l 0 0 l 0 192 l 486 678 l 0 678 l 0 949 l 949 949 l 949 758 l 463 271 z "},"{":{"ha":678,"x_min":0,"x_max":610,"o":"m 136 678 l 136 882 l 271 1017 l 610 1017 l 610 746 l 475 746 l 407 678 l 407 543 l 339 475 l 407 407 l 407 271 l 475 203 l 610 203 l 610 -68 l 271 -68 l 136 68 l 136 271 l 0 407 l 0 543 l 136 678 z "},"|":{"ha":339,"x_min":0,"x_max":271,"o":"m 271 -68 l 0 -68 l 0 1017 l 271 1017 l 271 -68 z "},"}":{"ha":678,"x_min":0,"x_max":610,"o":"m 475 271 l 475 68 l 339 -68 l 0 -68 l 0 203 l 136 203 l 203 271 l 203 407 l 271 475 l 203 543 l 203 678 l 136 746 l 0 746 l 0 1017 l 339 1017 l 475 882 l 475 678 l 610 543 l 610 407 l 475 271 z "},"~":{"ha":882,"x_min":0,"x_max":814,"o":"m 271 407 l 203 339 l 0 339 l 0 610 l 68 678 l 475 678 l 543 610 l 610 678 l 814 678 l 814 407 l 746 339 l 339 339 l 271 407 z "},"¡":{"ha":339,"x_min":0,"x_max":271,"o":"m 0 694 l 271 694 l 271 423 l 0 423 l 0 694 m 0 355 l 271 355 l 271 -255 l 0 -255 l 0 355 z "},"¢":{"ha":1017,"x_min":0,"x_max":949,"o":"m 339 271 l 610 271 l 678 339 l 678 407 l 949 339 l 949 136 l 814 0 l 610 0 l 610 -136 l 339 -136 l 339 0 l 136 0 l 0 136 l 0 814 l 136 949 l 339 949 l 339 1085 l 610 1085 l 610 949 l 814 949 l 949 814 l 949 610 l 678 543 l 678 610 l 610 678 l 339 678 l 271 610 l 271 339 l 339 271 z "},"£":{"ha":1017,"x_min":0,"x_max":949,"o":"m 949 610 l 678 543 l 678 610 l 610 678 l 407 678 l 339 610 l 610 610 l 610 339 l 339 339 l 339 271 l 678 271 l 678 407 l 949 339 l 949 0 l 0 0 l 0 271 l 68 271 l 68 339 l 0 339 l 0 610 l 68 610 l 68 814 l 203 949 l 814 949 l 949 814 l 949 610 z "},"¤":{"ha":1017,"x_min":-136,"x_max":1085,"o":"m 610 949 l 1085 949 l 814 678 l 339 678 l 305 644 l 339 610 l 814 610 l 949 475 l 949 136 l 814 0 l 610 0 l 610 -136 l 339 -136 l 339 0 l 136 0 l -136 271 l 610 271 l 644 305 l 610 339 l 136 339 l 0 475 l 0 814 l 136 949 l 339 949 l 339 1085 l 610 1085 l 610 949 z "},"¥":{"ha":1017,"x_min":0,"x_max":949,"o":"m 678 746 l 678 949 l 949 949 l 949 543 l 814 407 l 610 407 l 610 339 l 882 339 l 882 68 l 610 68 l 610 0 l 339 0 l 339 68 l 68 68 l 68 339 l 339 339 l 339 407 l 136 407 l 0 543 l 0 949 l 271 949 l 271 746 l 339 678 l 610 678 l 678 746 z "},"¦":{"ha":339,"x_min":0,"x_max":271,"o":"m 271 441 l 271 -68 l 0 -68 l 0 441 l 271 441 m 0 509 l 0 1017 l 271 1017 l 271 509 l 0 509 z "},"§":{"ha":1017,"x_min":-136,"x_max":1085,"o":"m 1085 949 l 814 678 l 339 678 l 305 644 l 339 610 l 814 610 l 949 475 l 949 136 l 814 0 l 136 0 l -136 271 l 610 271 l 644 305 l 610 339 l 136 339 l 0 475 l 0 814 l 136 949 l 1085 949 m 644 441 l 644 509 l 305 509 l 305 441 l 644 441 z "},"¨":{"ha":678,"x_min":0,"x_max":610,"o":"m 271 678 l 0 678 l 0 949 l 271 949 l 271 678 m 610 678 l 339 678 l 339 949 l 610 949 l 610 678 z "},"©":{"ha":1017,"x_min":0,"x_max":949,"o":"m 746 678 l 678 746 l 271 746 l 203 678 l 203 271 l 271 203 l 678 203 l 746 271 l 746 678 m 814 949 l 949 814 l 949 136 l 814 0 l 136 0 l 0 136 l 0 814 l 136 949 l 814 949 m 678 441 l 678 271 l 271 271 l 271 678 l 678 678 l 678 509 l 475 509 l 475 441 l 678 441 z "},"«":{"ha":1215,"x_min":0,"x_max":1147,"o":"m 407 475 l 610 271 l 610 0 l 407 0 l 0 407 l 0 543 l 407 949 l 610 949 l 610 678 l 407 475 m 944 475 l 1147 271 l 1147 0 l 944 0 l 537 407 l 537 543 l 944 949 l 1147 949 l 1147 678 l 944 475 z "},"¬":{"ha":746,"x_min":0,"x_max":678,"o":"m 407 407 l 0 407 l 0 678 l 678 678 l 678 271 l 407 271 l 407 407 z "},"®":{"ha":1017,"x_min":0,"x_max":949,"o":"m 746 678 l 678 746 l 271 746 l 203 678 l 203 271 l 271 203 l 678 203 l 746 271 l 746 678 m 814 949 l 949 814 l 949 136 l 814 0 l 136 0 l 0 136 l 0 814 l 136 949 l 814 949 m 271 271 l 271 678 l 678 678 l 678 509 l 475 509 l 475 271 l 271 271 z "},"¯":{"ha":746,"x_min":0,"x_max":678,"o":"m 0 762 l 0 1034 l 678 1034 l 678 762 l 0 762 z "},"°":{"ha":543,"x_min":-3,"x_max":477,"o":"m 237 540 l -3 780 l 237 1020 l 477 780 l 237 540 m 237 732 l 286 780 l 237 828 l 189 780 l 237 732 z "},"±":{"ha":746,"x_min":0,"x_max":678,"o":"m 203 339 l 203 407 l 0 407 l 0 678 l 203 678 l 203 882 l 475 882 l 475 678 l 678 678 l 678 407 l 475 407 l 475 339 l 678 339 l 678 68 l 0 68 l 0 339 l 203 339 z "},"´":{"ha":610,"x_min":0,"x_max":543,"o":"m 0 678 l 136 949 l 543 949 l 271 678 l 0 678 z "},"¶":{"ha":1017,"x_min":0,"x_max":949,"o":"m 610 136 l 339 -136 l 339 271 l 136 271 l 0 407 l 0 814 l 136 949 l 949 949 l 949 136 l 678 -136 l 678 678 l 610 678 l 610 136 z "},"·":{"ha":271,"x_min":0,"x_max":231,"o":"m 231 371 l 0 371 l 0 602 l 231 602 l 231 371 z "},"¸":{"ha":407,"x_min":0,"x_max":339,"o":"m 339 -203 l 271 -271 l 0 -271 l 0 -68 l 68 0 l 0 68 l 0 271 l 271 271 l 339 203 l 339 -203 z "},"»":{"ha":1215,"x_min":0,"x_max":1147,"o":"m 203 475 l 0 678 l 0 949 l 203 949 l 610 543 l 610 407 l 203 0 l 0 0 l 0 271 l 203 475 m 741 475 l 537 678 l 537 949 l 741 949 l 1147 543 l 1147 407 l 741 0 l 537 0 l 537 271 l 741 475 z "},"¿":{"ha":1017,"x_min":0,"x_max":949,"o":"m 339 16 l 949 16 l 949 -255 l 136 -255 l 0 -119 l 0 220 l 136 355 l 746 355 l 746 84 l 339 84 l 305 50 l 339 16 m 475 694 l 746 694 l 746 423 l 475 423 l 475 694 z "},"À":{"ha":1017,"x_min":0,"x_max":949,"o":"m 339 678 l 271 610 l 271 475 l 678 475 l 678 610 l 610 678 l 339 678 m 678 1017 l 407 1017 l 136 1289 l 543 1289 l 678 1017 m 0 814 l 136 949 l 814 949 l 949 814 l 949 0 l 678 0 l 678 203 l 271 203 l 271 -136 l 0 136 l 0 814 z "},"Á":{"ha":1017,"x_min":0,"x_max":949,"o":"m 339 678 l 271 610 l 271 475 l 678 475 l 678 610 l 610 678 l 339 678 m 271 1017 l 407 1289 l 814 1289 l 543 1017 l 271 1017 m 0 814 l 136 949 l 814 949 l 949 814 l 949 0 l 678 0 l 678 203 l 271 203 l 271 -136 l 0 136 l 0 814 z "},"Â":{"ha":1017,"x_min":0,"x_max":949,"o":"m 339 678 l 271 610 l 271 475 l 678 475 l 678 610 l 610 678 l 339 678 m 475 1085 l 407 1017 l 203 1017 l 203 1153 l 339 1289 l 610 1289 l 746 1153 l 746 1017 l 543 1017 l 475 1085 m 0 814 l 136 949 l 814 949 l 949 814 l 949 0 l 678 0 l 678 203 l 271 203 l 271 -136 l 0 136 l 0 814 z "},"Ã":{"ha":1017,"x_min":0,"x_max":949,"o":"m 339 678 l 271 610 l 271 475 l 678 475 l 678 610 l 610 678 l 339 678 m 407 1085 l 339 1017 l 203 1017 l 203 1221 l 271 1289 l 543 1289 l 610 1221 l 678 1289 l 814 1289 l 814 1085 l 746 1017 l 475 1017 l 407 1085 m 0 814 l 136 949 l 814 949 l 949 814 l 949 0 l 678 0 l 678 203 l 271 203 l 271 -136 l 0 136 l 0 814 z "},"Ä":{"ha":1017,"x_min":0,"x_max":949,"o":"m 339 678 l 271 610 l 271 475 l 678 475 l 678 610 l 610 678 l 339 678 m 780 1017 l 509 1017 l 509 1289 l 780 1289 l 780 1017 m 441 1017 l 170 1017 l 170 1289 l 441 1289 l 441 1017 m 0 814 l 136 949 l 814 949 l 949 814 l 949 0 l 678 0 l 678 203 l 271 203 l 271 -136 l 0 136 l 0 814 z "},"Å":{"ha":1017,"x_min":0,"x_max":949,"o":"m 475 1010 l 523 1058 l 475 1106 l 427 1058 l 475 1010 m 0 814 l 136 949 l 343 949 l 235 1058 l 475 1298 l 715 1058 l 606 949 l 814 949 l 949 814 l 949 0 l 678 0 l 678 203 l 271 203 l 271 -136 l 0 136 l 0 814 m 339 678 l 271 610 l 271 475 l 678 475 l 678 610 l 610 678 l 339 678 z "},"Æ":{"ha":1695,"x_min":0,"x_max":1763,"o":"m 0 814 l 136 949 l 1763 949 l 1492 678 l 949 678 l 949 610 l 1560 610 l 1424 339 l 949 339 l 949 271 l 1492 271 l 1763 0 l 678 0 l 678 203 l 271 203 l 271 -136 l 0 136 l 0 814 m 339 678 l 271 610 l 271 475 l 678 475 l 678 678 l 339 678 z "},"Ç":{"ha":1017,"x_min":0,"x_max":949,"o":"m 949 610 l 678 543 l 678 610 l 610 678 l 339 678 l 271 610 l 271 339 l 339 271 l 610 271 l 678 339 l 678 407 l 949 339 l 949 136 l 814 0 l 644 0 l 644 -203 l 576 -271 l 305 -271 l 305 -68 l 373 0 l 136 0 l 0 136 l 0 814 l 136 949 l 814 949 l 949 814 l 949 610 z "},"È":{"ha":1017,"x_min":0,"x_max":1085,"o":"m 271 610 l 882 610 l 746 339 l 271 339 l 271 271 l 814 271 l 1085 0 l 0 0 l 0 949 l 1085 949 l 814 678 l 271 678 l 271 610 m 746 1017 l 475 1017 l 203 1289 l 610 1289 l 746 1017 z "},"É":{"ha":1017,"x_min":0,"x_max":1085,"o":"m 271 610 l 882 610 l 746 339 l 271 339 l 271 271 l 814 271 l 1085 0 l 0 0 l 0 949 l 1085 949 l 814 678 l 271 678 l 271 610 m 339 1017 l 475 1289 l 882 1289 l 610 1017 l 339 1017 z "},"Ê":{"ha":1017,"x_min":0,"x_max":1085,"o":"m 271 610 l 882 610 l 746 339 l 271 339 l 271 271 l 814 271 l 1085 0 l 0 0 l 0 949 l 1085 949 l 814 678 l 271 678 l 271 610 m 543 1085 l 475 1017 l 271 1017 l 271 1153 l 407 1289 l 678 1289 l 814 1153 l 814 1017 l 610 1017 l 543 1085 z "},"Ë":{"ha":1017,"x_min":0,"x_max":1085,"o":"m 271 610 l 882 610 l 746 339 l 271 339 l 271 271 l 814 271 l 1085 0 l 0 0 l 0 949 l 1085 949 l 814 678 l 271 678 l 271 610 m 848 1017 l 576 1017 l 576 1289 l 848 1289 l 848 1017 m 509 1017 l 237 1017 l 237 1289 l 509 1289 l 509 1017 z "},"Ì":{"ha":339,"x_min":-203,"x_max":339,"o":"m 271 0 l 0 0 l 0 949 l 271 949 l 271 0 m 339 1017 l 68 1017 l -203 1289 l 203 1289 l 339 1017 z "},"Í":{"ha":339,"x_min":-68,"x_max":475,"o":"m 271 0 l 0 0 l 0 949 l 271 949 l 271 0 m -68 1017 l 68 1289 l 475 1289 l 203 1017 l -68 1017 z "},"Î":{"ha":339,"x_min":-136,"x_max":407,"o":"m 271 0 l 0 0 l 0 949 l 271 949 l 271 0 m 136 1085 l 68 1017 l -136 1017 l -136 1153 l 0 1289 l 271 1289 l 407 1153 l 407 1017 l 203 1017 l 136 1085 z "},"Ï":{"ha":339,"x_min":-170,"x_max":441,"o":"m 271 0 l 0 0 l 0 949 l 271 949 l 271 0 m 441 1017 l 170 1017 l 170 1289 l 441 1289 l 441 1017 m 102 1017 l -170 1017 l -170 1289 l 102 1289 l 102 1017 z "},"Ð":{"ha":1085,"x_min":0,"x_max":1017,"o":"m 136 0 l 136 339 l 0 339 l 0 610 l 136 610 l 136 949 l 882 949 l 1017 814 l 1017 136 l 882 0 l 136 0 m 407 339 l 407 271 l 678 271 l 746 339 l 746 610 l 678 678 l 407 678 l 407 610 l 610 610 l 610 339 l 407 339 z "},"Ñ":{"ha":1017,"x_min":0,"x_max":949,"o":"m 678 463 l 678 949 l 949 949 l 949 0 l 746 0 l 734 23 l 271 486 l 271 0 l 0 0 l 0 949 l 192 949 l 678 463 m 373 1085 l 305 1017 l 170 1017 l 170 1221 l 237 1289 l 509 1289 l 576 1221 l 644 1289 l 780 1289 l 780 1085 l 712 1017 l 441 1017 l 373 1085 z "},"Ò":{"ha":1017,"x_min":0,"x_max":949,"o":"m 678 610 l 610 678 l 339 678 l 271 610 l 271 339 l 339 271 l 610 271 l 678 339 l 678 610 m 678 1017 l 407 1017 l 136 1289 l 543 1289 l 678 1017 m 814 949 l 949 814 l 949 136 l 814 0 l 136 0 l 0 136 l 0 814 l 136 949 l 814 949 z "},"Ó":{"ha":1017,"x_min":0,"x_max":949,"o":"m 678 610 l 610 678 l 339 678 l 271 610 l 271 339 l 339 271 l 610 271 l 678 339 l 678 610 m 271 1017 l 407 1289 l 814 1289 l 543 1017 l 271 1017 m 814 949 l 949 814 l 949 136 l 814 0 l 136 0 l 0 136 l 0 814 l 136 949 l 814 949 z "},"Ô":{"ha":1017,"x_min":0,"x_max":949,"o":"m 678 610 l 610 678 l 339 678 l 271 610 l 271 339 l 339 271 l 610 271 l 678 339 l 678 610 m 475 1085 l 407 1017 l 203 1017 l 203 1153 l 339 1289 l 610 1289 l 746 1153 l 746 1017 l 543 1017 l 475 1085 m 814 949 l 949 814 l 949 136 l 814 0 l 136 0 l 0 136 l 0 814 l 136 949 l 814 949 z "},"Õ":{"ha":1017,"x_min":0,"x_max":949,"o":"m 678 610 l 610 678 l 339 678 l 271 610 l 271 339 l 339 271 l 610 271 l 678 339 l 678 610 m 373 1085 l 305 1017 l 170 1017 l 170 1221 l 237 1289 l 509 1289 l 576 1221 l 644 1289 l 780 1289 l 780 1085 l 712 1017 l 441 1017 l 373 1085 m 814 949 l 949 814 l 949 136 l 814 0 l 136 0 l 0 136 l 0 814 l 136 949 l 814 949 z "},"Ö":{"ha":1017,"x_min":0,"x_max":949,"o":"m 678 610 l 610 678 l 339 678 l 271 610 l 271 339 l 339 271 l 610 271 l 678 339 l 678 610 m 780 1017 l 509 1017 l 509 1289 l 780 1289 l 780 1017 m 441 1017 l 170 1017 l 170 1289 l 441 1289 l 441 1017 m 814 949 l 949 814 l 949 136 l 814 0 l 136 0 l 0 136 l 0 814 l 136 949 l 814 949 z "},"×":{"ha":746,"x_min":3,"x_max":675,"o":"m 147 475 l 3 618 l 195 810 l 339 667 l 483 810 l 675 618 l 531 475 l 675 331 l 483 139 l 339 283 l 195 139 l 3 331 l 147 475 z "},"Ø":{"ha":1017,"x_min":0,"x_max":949,"o":"m 814 949 l 949 814 l 949 136 l 814 0 l 136 0 l 0 136 l 0 814 l 136 949 l 814 949 m 486 678 l 339 678 l 271 610 l 271 463 l 486 678 m 610 271 l 678 339 l 678 486 l 463 271 l 610 271 z "},"Ù":{"ha":1017,"x_min":0,"x_max":949,"o":"m 678 339 l 678 949 l 949 949 l 949 136 l 814 0 l 136 0 l 0 136 l 0 949 l 271 949 l 271 339 l 339 271 l 610 271 l 678 339 m 678 1017 l 407 1017 l 136 1289 l 543 1289 l 678 1017 z "},"Ú":{"ha":1017,"x_min":0,"x_max":949,"o":"m 678 339 l 678 949 l 949 949 l 949 136 l 814 0 l 136 0 l 0 136 l 0 949 l 271 949 l 271 339 l 339 271 l 610 271 l 678 339 m 271 1017 l 407 1289 l 814 1289 l 543 1017 l 271 1017 z "},"Û":{"ha":1017,"x_min":0,"x_max":949,"o":"m 678 339 l 678 949 l 949 949 l 949 136 l 814 0 l 136 0 l 0 136 l 0 949 l 271 949 l 271 339 l 339 271 l 610 271 l 678 339 m 475 1085 l 407 1017 l 203 1017 l 203 1153 l 339 1289 l 610 1289 l 746 1153 l 746 1017 l 543 1017 l 475 1085 z "},"Ü":{"ha":1017,"x_min":0,"x_max":949,"o":"m 678 339 l 678 949 l 949 949 l 949 136 l 814 0 l 136 0 l 0 136 l 0 949 l 271 949 l 271 339 l 339 271 l 610 271 l 678 339 m 780 1017 l 509 1017 l 509 1289 l 780 1289 l 780 1017 m 441 1017 l 170 1017 l 170 1289 l 441 1289 l 441 1017 z "},"Ý":{"ha":1017,"x_min":0,"x_max":949,"o":"m 678 610 l 678 949 l 949 949 l 949 407 l 814 271 l 610 271 l 610 -136 l 339 136 l 339 271 l 136 271 l 0 407 l 0 949 l 271 949 l 271 610 l 339 543 l 610 543 l 678 610 m 271 1017 l 407 1289 l 814 1289 l 543 1017 l 271 1017 z "},"Þ":{"ha":1017,"x_min":0,"x_max":949,"o":"m 678 543 l 610 610 l 271 610 l 271 339 l 610 339 l 678 407 l 678 543 m 814 882 l 949 746 l 949 203 l 814 68 l 271 68 l 271 0 l 0 0 l 0 949 l 271 949 l 271 882 l 814 882 z "},"ß":{"ha":1017,"x_min":0,"x_max":949,"o":"m 339 0 l 339 271 l 610 271 l 644 305 l 610 339 l 339 339 l 339 610 l 610 610 l 644 644 l 610 678 l 339 678 l 271 610 l 271 -271 l 0 0 l 0 814 l 136 949 l 814 949 l 949 814 l 949 610 l 814 475 l 949 339 l 949 136 l 814 0 l 339 0 z "},"à":{"ha":1017,"x_min":0,"x_max":949,"o":"m 339 678 l 271 610 l 271 475 l 678 475 l 678 610 l 610 678 l 339 678 m 678 1017 l 407 1017 l 136 1289 l 543 1289 l 678 1017 m 0 814 l 136 949 l 814 949 l 949 814 l 949 0 l 678 0 l 678 203 l 271 203 l 271 -136 l 0 136 l 0 814 z "},"á":{"ha":1017,"x_min":0,"x_max":949,"o":"m 339 678 l 271 610 l 271 475 l 678 475 l 678 610 l 610 678 l 339 678 m 271 1017 l 407 1289 l 814 1289 l 543 1017 l 271 1017 m 0 814 l 136 949 l 814 949 l 949 814 l 949 0 l 678 0 l 678 203 l 271 203 l 271 -136 l 0 136 l 0 814 z "},"â":{"ha":1017,"x_min":0,"x_max":949,"o":"m 339 678 l 271 610 l 271 475 l 678 475 l 678 610 l 610 678 l 339 678 m 475 1085 l 407 1017 l 203 1017 l 203 1153 l 339 1289 l 610 1289 l 746 1153 l 746 1017 l 543 1017 l 475 1085 m 0 814 l 136 949 l 814 949 l 949 814 l 949 0 l 678 0 l 678 203 l 271 203 l 271 -136 l 0 136 l 0 814 z "},"ã":{"ha":1017,"x_min":0,"x_max":949,"o":"m 339 678 l 271 610 l 271 475 l 678 475 l 678 610 l 610 678 l 339 678 m 407 1085 l 339 1017 l 203 1017 l 203 1221 l 271 1289 l 543 1289 l 610 1221 l 678 1289 l 814 1289 l 814 1085 l 746 1017 l 475 1017 l 407 1085 m 0 814 l 136 949 l 814 949 l 949 814 l 949 0 l 678 0 l 678 203 l 271 203 l 271 -136 l 0 136 l 0 814 z "},"ä":{"ha":1017,"x_min":0,"x_max":949,"o":"m 339 678 l 271 610 l 271 475 l 678 475 l 678 610 l 610 678 l 339 678 m 780 1017 l 509 1017 l 509 1289 l 780 1289 l 780 1017 m 441 1017 l 170 1017 l 170 1289 l 441 1289 l 441 1017 m 0 814 l 136 949 l 814 949 l 949 814 l 949 0 l 678 0 l 678 203 l 271 203 l 271 -136 l 0 136 l 0 814 z "},"å":{"ha":1017,"x_min":0,"x_max":949,"o":"m 475 1010 l 523 1058 l 475 1106 l 427 1058 l 475 1010 m 0 814 l 136 949 l 343 949 l 235 1058 l 475 1298 l 715 1058 l 606 949 l 814 949 l 949 814 l 949 0 l 678 0 l 678 203 l 271 203 l 271 -136 l 0 136 l 0 814 m 339 678 l 271 610 l 271 475 l 678 475 l 678 610 l 610 678 l 339 678 z "},"æ":{"ha":1695,"x_min":0,"x_max":1763,"o":"m 0 814 l 136 949 l 1763 949 l 1492 678 l 949 678 l 949 610 l 1560 610 l 1424 339 l 949 339 l 949 271 l 1492 271 l 1763 0 l 678 0 l 678 203 l 271 203 l 271 -136 l 0 136 l 0 814 m 339 678 l 271 610 l 271 475 l 678 475 l 678 678 l 339 678 z "},"ç":{"ha":1017,"x_min":0,"x_max":949,"o":"m 949 610 l 678 543 l 678 610 l 610 678 l 339 678 l 271 610 l 271 339 l 339 271 l 610 271 l 678 339 l 678 407 l 949 339 l 949 136 l 814 0 l 644 0 l 644 -203 l 576 -271 l 305 -271 l 305 -68 l 373 0 l 136 0 l 0 136 l 0 814 l 136 949 l 814 949 l 949 814 l 949 610 z "},"è":{"ha":1017,"x_min":0,"x_max":1085,"o":"m 271 610 l 882 610 l 746 339 l 271 339 l 271 271 l 814 271 l 1085 0 l 0 0 l 0 949 l 1085 949 l 814 678 l 271 678 l 271 610 m 746 1017 l 475 1017 l 203 1289 l 610 1289 l 746 1017 z "},"é":{"ha":1017,"x_min":0,"x_max":1085,"o":"m 271 610 l 882 610 l 746 339 l 271 339 l 271 271 l 814 271 l 1085 0 l 0 0 l 0 949 l 1085 949 l 814 678 l 271 678 l 271 610 m 339 1017 l 475 1289 l 882 1289 l 610 1017 l 339 1017 z "},"ê":{"ha":1017,"x_min":0,"x_max":1085,"o":"m 271 610 l 882 610 l 746 339 l 271 339 l 271 271 l 814 271 l 1085 0 l 0 0 l 0 949 l 1085 949 l 814 678 l 271 678 l 271 610 m 543 1085 l 475 1017 l 271 1017 l 271 1153 l 407 1289 l 678 1289 l 814 1153 l 814 1017 l 610 1017 l 543 1085 z "},"ë":{"ha":1017,"x_min":0,"x_max":1085,"o":"m 271 610 l 882 610 l 746 339 l 271 339 l 271 271 l 814 271 l 1085 0 l 0 0 l 0 949 l 1085 949 l 814 678 l 271 678 l 271 610 m 848 1017 l 576 1017 l 576 1289 l 848 1289 l 848 1017 m 509 1017 l 237 1017 l 237 1289 l 509 1289 l 509 1017 z "},"ì":{"ha":339,"x_min":-203,"x_max":339,"o":"m 271 0 l 0 0 l 0 949 l 271 949 l 271 0 m 339 1017 l 68 1017 l -203 1289 l 203 1289 l 339 1017 z "},"í":{"ha":339,"x_min":-68,"x_max":475,"o":"m 271 0 l 0 0 l 0 949 l 271 949 l 271 0 m -68 1017 l 68 1289 l 475 1289 l 203 1017 l -68 1017 z "},"î":{"ha":339,"x_min":-136,"x_max":407,"o":"m 271 0 l 0 0 l 0 949 l 271 949 l 271 0 m 136 1085 l 68 1017 l -136 1017 l -136 1153 l 0 1289 l 271 1289 l 407 1153 l 407 1017 l 203 1017 l 136 1085 z "},"ï":{"ha":339,"x_min":-170,"x_max":441,"o":"m 271 0 l 0 0 l 0 949 l 271 949 l 271 0 m 441 1017 l 170 1017 l 170 1289 l 441 1289 l 441 1017 m 102 1017 l -170 1017 l -170 1289 l 102 1289 l 102 1017 z "},"ð":{"ha":1085,"x_min":0,"x_max":1017,"o":"m 136 0 l 136 339 l 0 339 l 0 610 l 136 610 l 136 949 l 882 949 l 1017 814 l 1017 136 l 882 0 l 136 0 m 407 339 l 407 271 l 678 271 l 746 339 l 746 610 l 678 678 l 407 678 l 407 610 l 610 610 l 610 339 l 407 339 z "},"ñ":{"ha":1017,"x_min":0,"x_max":949,"o":"m 678 463 l 678 949 l 949 949 l 949 0 l 746 0 l 734 23 l 271 486 l 271 0 l 0 0 l 0 949 l 192 949 l 678 463 m 373 1085 l 305 1017 l 170 1017 l 170 1221 l 237 1289 l 509 1289 l 576 1221 l 644 1289 l 780 1289 l 780 1085 l 712 1017 l 441 1017 l 373 1085 z "},"ò":{"ha":1017,"x_min":0,"x_max":949,"o":"m 678 610 l 610 678 l 339 678 l 271 610 l 271 339 l 339 271 l 610 271 l 678 339 l 678 610 m 678 1017 l 407 1017 l 136 1289 l 543 1289 l 678 1017 m 814 949 l 949 814 l 949 136 l 814 0 l 136 0 l 0 136 l 0 814 l 136 949 l 814 949 z "},"ó":{"ha":1017,"x_min":0,"x_max":949,"o":"m 678 610 l 610 678 l 339 678 l 271 610 l 271 339 l 339 271 l 610 271 l 678 339 l 678 610 m 271 1017 l 407 1289 l 814 1289 l 543 1017 l 271 1017 m 814 949 l 949 814 l 949 136 l 814 0 l 136 0 l 0 136 l 0 814 l 136 949 l 814 949 z "},"ô":{"ha":1017,"x_min":0,"x_max":949,"o":"m 678 610 l 610 678 l 339 678 l 271 610 l 271 339 l 339 271 l 610 271 l 678 339 l 678 610 m 475 1085 l 407 1017 l 203 1017 l 203 1153 l 339 1289 l 610 1289 l 746 1153 l 746 1017 l 543 1017 l 475 1085 m 814 949 l 949 814 l 949 136 l 814 0 l 136 0 l 0 136 l 0 814 l 136 949 l 814 949 z "},"õ":{"ha":1017,"x_min":0,"x_max":949,"o":"m 678 610 l 610 678 l 339 678 l 271 610 l 271 339 l 339 271 l 610 271 l 678 339 l 678 610 m 373 1085 l 305 1017 l 170 1017 l 170 1221 l 237 1289 l 509 1289 l 576 1221 l 644 1289 l 780 1289 l 780 1085 l 712 1017 l 441 1017 l 373 1085 m 814 949 l 949 814 l 949 136 l 814 0 l 136 0 l 0 136 l 0 814 l 136 949 l 814 949 z "},"ö":{"ha":1017,"x_min":0,"x_max":949,"o":"m 678 610 l 610 678 l 339 678 l 271 610 l 271 339 l 339 271 l 610 271 l 678 339 l 678 610 m 780 1017 l 509 1017 l 509 1289 l 780 1289 l 780 1017 m 441 1017 l 170 1017 l 170 1289 l 441 1289 l 441 1017 m 814 949 l 949 814 l 949 136 l 814 0 l 136 0 l 0 136 l 0 814 l 136 949 l 814 949 z "},"÷":{"ha":1017,"x_min":0,"x_max":949,"o":"m 192 0 l 0 0 l 0 192 l 758 949 l 949 949 l 949 758 l 192 0 z "},"ø":{"ha":1017,"x_min":0,"x_max":949,"o":"m 814 949 l 949 814 l 949 136 l 814 0 l 136 0 l 0 136 l 0 814 l 136 949 l 814 949 m 486 678 l 339 678 l 271 610 l 271 463 l 486 678 m 610 271 l 678 339 l 678 486 l 463 271 l 610 271 z "},"ù":{"ha":1017,"x_min":0,"x_max":949,"o":"m 678 339 l 678 949 l 949 949 l 949 136 l 814 0 l 136 0 l 0 136 l 0 949 l 271 949 l 271 339 l 339 271 l 610 271 l 678 339 m 678 1017 l 407 1017 l 136 1289 l 543 1289 l 678 1017 z "},"ú":{"ha":1017,"x_min":0,"x_max":949,"o":"m 678 339 l 678 949 l 949 949 l 949 136 l 814 0 l 136 0 l 0 136 l 0 949 l 271 949 l 271 339 l 339 271 l 610 271 l 678 339 m 271 1017 l 407 1289 l 814 1289 l 543 1017 l 271 1017 z "},"û":{"ha":1017,"x_min":0,"x_max":949,"o":"m 678 339 l 678 949 l 949 949 l 949 136 l 814 0 l 136 0 l 0 136 l 0 949 l 271 949 l 271 339 l 339 271 l 610 271 l 678 339 m 475 1085 l 407 1017 l 203 1017 l 203 1153 l 339 1289 l 610 1289 l 746 1153 l 746 1017 l 543 1017 l 475 1085 z "},"ü":{"ha":1017,"x_min":0,"x_max":949,"o":"m 678 339 l 678 949 l 949 949 l 949 136 l 814 0 l 136 0 l 0 136 l 0 949 l 271 949 l 271 339 l 339 271 l 610 271 l 678 339 m 780 1017 l 509 1017 l 509 1289 l 780 1289 l 780 1017 m 441 1017 l 170 1017 l 170 1289 l 441 1289 l 441 1017 z "},"ý":{"ha":1017,"x_min":0,"x_max":949,"o":"m 678 610 l 678 949 l 949 949 l 949 407 l 814 271 l 610 271 l 610 -136 l 339 136 l 339 271 l 136 271 l 0 407 l 0 949 l 271 949 l 271 610 l 339 543 l 610 543 l 678 610 m 271 1017 l 407 1289 l 814 1289 l 543 1017 l 271 1017 z "},"þ":{"ha":1017,"x_min":0,"x_max":949,"o":"m 678 543 l 610 610 l 271 610 l 271 339 l 610 339 l 678 407 l 678 543 m 814 882 l 949 746 l 949 203 l 814 68 l 271 68 l 271 0 l 0 0 l 0 949 l 271 949 l 271 882 l 814 882 z "},"ÿ":{"ha":1017,"x_min":0,"x_max":949,"o":"m 678 610 l 678 949 l 949 949 l 949 407 l 814 271 l 610 271 l 610 -136 l 339 136 l 339 271 l 136 271 l 0 407 l 0 949 l 271 949 l 271 610 l 339 543 l 610 543 l 678 610 m 780 1017 l 509 1017 l 509 1289 l 780 1289 l 780 1017 m 441 1017 l 170 1017 l 170 1289 l 441 1289 l 441 1017 z "},"ı":{"ha":339,"x_min":0,"x_max":271,"o":"m 271 0 l 0 0 l 0 949 l 271 949 l 271 0 z "},"ˆ":{"ha":610,"x_min":0,"x_max":543,"o":"m 271 746 l 203 678 l 0 678 l 0 814 l 136 949 l 407 949 l 543 814 l 543 678 l 339 678 l 271 746 z "},"ˇ":{"ha":610,"x_min":0,"x_max":543,"o":"m 271 882 l 339 949 l 543 949 l 543 814 l 407 678 l 136 678 l 0 814 l 0 949 l 203 949 l 271 882 z "},"ˉ":{"ha":543,"x_min":0,"x_max":475,"o":"m 475 678 l 0 678 l 0 949 l 475 949 l 475 678 z "},"˘":{"ha":610,"x_min":0,"x_max":543,"o":"m 203 882 l 339 882 l 339 949 l 543 949 l 543 814 l 407 678 l 136 678 l 0 814 l 0 949 l 203 949 l 203 882 z "},"˙":{"ha":271,"x_min":0,"x_max":231,"o":"m 231 794 l 0 794 l 0 1025 l 231 1025 l 231 794 z "},"˚":{"ha":543,"x_min":-3,"x_max":477,"o":"m 237 540 l -3 780 l 237 1020 l 477 780 l 237 540 m 237 732 l 286 780 l 237 828 l 189 780 l 237 732 z "},"˛":{"ha":407,"x_min":0,"x_max":339,"o":"m 0 203 l 68 271 l 339 271 l 339 68 l 271 0 l 339 -68 l 339 -271 l 68 -271 l 0 -203 l 0 203 z "},"˜":{"ha":678,"x_min":0,"x_max":610,"o":"m 203 746 l 136 678 l 0 678 l 0 882 l 68 949 l 339 949 l 407 882 l 475 949 l 610 949 l 610 746 l 543 678 l 271 678 l 203 746 z "},"˝":{"ha":1085,"x_min":0,"x_max":1017,"o":"m 0 678 l 136 949 l 543 949 l 271 678 l 0 678 m 475 678 l 610 949 l 1017 949 l 746 678 l 475 678 z "},"‘":{"ha":339,"x_min":0,"x_max":271,"o":"m 0 678 l 271 949 l 271 407 l 0 407 l 0 678 z "},"’":{"ha":339,"x_min":0,"x_max":271,"o":"m 271 678 l 0 407 l 0 949 l 271 949 l 271 678 z "},"‚":{"ha":339,"x_min":0,"x_max":271,"o":"m 271 0 l 0 -271 l 0 271 l 271 271 l 271 0 z "},"“":{"ha":678,"x_min":0,"x_max":610,"o":"m 339 678 l 610 949 l 610 407 l 339 407 l 339 678 m 0 678 l 271 949 l 271 407 l 0 407 l 0 678 z "},"”":{"ha":678,"x_min":0,"x_max":610,"o":"m 271 678 l 0 407 l 0 949 l 271 949 l 271 678 m 610 678 l 339 407 l 339 949 l 610 949 l 610 678 z "},"„":{"ha":678,"x_min":0,"x_max":610,"o":"m 271 0 l 0 -271 l 0 271 l 271 271 l 271 0 m 610 0 l 339 -271 l 339 271 l 610 271 l 610 0 z "},"•":{"ha":694,"x_min":0,"x_max":540,"o":"m 540 216 l 0 216 l 0 756 l 540 756 l 540 216 z "},"‹":{"ha":678,"x_min":0,"x_max":610,"o":"m 407 475 l 610 271 l 610 0 l 407 0 l 0 407 l 0 543 l 407 949 l 610 949 l 610 678 l 407 475 z "},"›":{"ha":678,"x_min":0,"x_max":610,"o":"m 203 475 l 0 678 l 0 949 l 203 949 l 610 543 l 610 407 l 203 0 l 0 0 l 0 271 l 203 475 z "},"€":{"ha":1017,"x_min":0,"x_max":949,"o":"m 68 631 l 68 814 l 203 949 l 814 949 l 949 814 l 949 610 l 678 543 l 678 610 l 610 678 l 407 678 l 359 631 l 610 631 l 610 495 l 339 495 l 339 454 l 610 454 l 610 319 l 359 319 l 407 271 l 610 271 l 678 339 l 678 407 l 949 339 l 949 136 l 814 0 l 203 0 l 68 136 l 68 319 l 0 319 l 0 454 l 68 454 l 68 495 l 0 495 l 0 631 l 68 631 z "},"™":{"ha":922,"x_min":0,"x_max":854,"o":"m 153 864 l 0 864 l 0 972 l 580 972 l 641 918 l 702 972 l 854 972 l 854 593 l 732 593 l 732 837 l 718 850 l 702 837 l 702 593 l 580 593 l 580 837 l 565 850 l 549 837 l 549 538 l 427 647 l 427 864 l 275 864 l 275 538 l 153 647 l 153 864 z "},"‰":{"ha":1221,"x_min":0,"x_max":1153,"o":"m 192 0 l 0 0 l 0 192 l 758 949 l 949 949 l 949 758 l 192 0 m 814 0 l 543 0 l 543 271 l 814 271 l 814 0 m 271 678 l 0 678 l 0 949 l 271 949 l 271 678 m 1153 0 l 882 0 l 882 271 l 1153 271 l 1153 0 z "},"Œ":{"ha":1695,"x_min":0,"x_max":1763,"o":"m 678 678 l 339 678 l 271 610 l 271 339 l 339 271 l 678 271 l 678 678 m 136 0 l 0 136 l 0 814 l 136 949 l 1763 949 l 1492 678 l 949 678 l 949 610 l 1560 610 l 1424 339 l 949 339 l 949 271 l 1492 271 l 1763 0 l 136 0 z "},"œ":{"ha":1695,"x_min":0,"x_max":1763,"o":"m 678 678 l 339 678 l 271 610 l 271 339 l 339 271 l 678 271 l 678 678 m 136 0 l 0 136 l 0 814 l 136 949 l 1763 949 l 1492 678 l 949 678 l 949 610 l 1560 610 l 1424 339 l 949 339 l 949 271 l 1492 271 l 1763 0 l 136 0 z "}}}
